<mxfile host="app.diagrams.net" agent="Mozilla/5.0 (Macintosh; Intel Mac OS X 10_15_7) AppleWebKit/537.36 (KHTML, like Gecko) Chrome/126.0.0.0 YaBrowser/24.7.0.0 Safari/537.36" version="24.7.13">
  <diagram name="Страница — 1" id="y3K7Dm7CG2cN1lbm9CCW">
    <mxGraphModel dx="435" dy="254" grid="1" gridSize="10" guides="1" tooltips="1" connect="1" arrows="1" fold="1" page="1" pageScale="1" pageWidth="827" pageHeight="1169" math="0" shadow="0">
      <root>
        <mxCell id="0" />
        <mxCell id="1" parent="0" />
        <mxCell id="oqAvVIWfd8Mlh-hOowKs-2" value="Начало" style="rounded=1;whiteSpace=wrap;html=1;arcSize=50;" parent="1" vertex="1">
          <mxGeometry x="270" y="80" width="120" height="60" as="geometry" />
        </mxCell>
        <mxCell id="oqAvVIWfd8Mlh-hOowKs-3" value="Конец" style="rounded=1;whiteSpace=wrap;html=1;arcSize=50;" parent="1" vertex="1">
          <mxGeometry x="270" y="780" width="120" height="60" as="geometry" />
        </mxCell>
        <mxCell id="oqAvVIWfd8Mlh-hOowKs-27" style="edgeStyle=orthogonalEdgeStyle;rounded=0;orthogonalLoop=1;jettySize=auto;html=1;entryX=0.5;entryY=0;entryDx=0;entryDy=0;endArrow=none;endFill=0;" parent="1" source="oqAvVIWfd8Mlh-hOowKs-4" target="oqAvVIWfd8Mlh-hOowKs-8" edge="1">
          <mxGeometry relative="1" as="geometry" />
        </mxCell>
        <mxCell id="oqAvVIWfd8Mlh-hOowKs-4" value="IsPrime(number)" style="rounded=1;whiteSpace=wrap;html=1;arcSize=50;" parent="1" vertex="1">
          <mxGeometry x="540" y="80" width="120" height="60" as="geometry" />
        </mxCell>
        <mxCell id="oqAvVIWfd8Mlh-hOowKs-29" style="edgeStyle=orthogonalEdgeStyle;rounded=0;orthogonalLoop=1;jettySize=auto;html=1;exitX=0.5;exitY=1;exitDx=0;exitDy=0;entryX=0.5;entryY=0;entryDx=0;entryDy=0;endArrow=none;endFill=0;" parent="1" source="oqAvVIWfd8Mlh-hOowKs-5" target="oqAvVIWfd8Mlh-hOowKs-7" edge="1">
          <mxGeometry relative="1" as="geometry" />
        </mxCell>
        <mxCell id="oqAvVIWfd8Mlh-hOowKs-39" style="edgeStyle=orthogonalEdgeStyle;rounded=0;orthogonalLoop=1;jettySize=auto;html=1;exitX=1;exitY=0.5;exitDx=0;exitDy=0;entryX=0.5;entryY=0;entryDx=0;entryDy=0;endArrow=none;endFill=0;" parent="1" source="oqAvVIWfd8Mlh-hOowKs-5" target="oqAvVIWfd8Mlh-hOowKs-6" edge="1">
          <mxGeometry relative="1" as="geometry">
            <Array as="points">
              <mxPoint x="680" y="285" />
              <mxPoint x="680" y="490" />
              <mxPoint x="600" y="490" />
            </Array>
          </mxGeometry>
        </mxCell>
        <mxCell id="oqAvVIWfd8Mlh-hOowKs-5" value="i = 2; i * i &amp;lt; number" style="shape=hexagon;perimeter=hexagonPerimeter2;whiteSpace=wrap;html=1;fixedSize=1;" parent="1" vertex="1">
          <mxGeometry x="540" y="260" width="120" height="50" as="geometry" />
        </mxCell>
        <mxCell id="oqAvVIWfd8Mlh-hOowKs-6" value="Конец" style="rounded=1;whiteSpace=wrap;html=1;arcSize=50;" parent="1" vertex="1">
          <mxGeometry x="540" y="510" width="120" height="60" as="geometry" />
        </mxCell>
        <mxCell id="oqAvVIWfd8Mlh-hOowKs-30" style="edgeStyle=orthogonalEdgeStyle;rounded=0;orthogonalLoop=1;jettySize=auto;html=1;exitX=0.5;exitY=1;exitDx=0;exitDy=0;entryX=0.5;entryY=0;entryDx=0;entryDy=0;endArrow=none;endFill=0;" parent="1" source="oqAvVIWfd8Mlh-hOowKs-7" target="oqAvVIWfd8Mlh-hOowKs-9" edge="1">
          <mxGeometry relative="1" as="geometry" />
        </mxCell>
        <mxCell id="oqAvVIWfd8Mlh-hOowKs-32" style="edgeStyle=orthogonalEdgeStyle;rounded=0;orthogonalLoop=1;jettySize=auto;html=1;exitX=0;exitY=0.5;exitDx=0;exitDy=0;entryX=0;entryY=0.5;entryDx=0;entryDy=0;" parent="1" source="oqAvVIWfd8Mlh-hOowKs-7" edge="1" target="oqAvVIWfd8Mlh-hOowKs-5">
          <mxGeometry relative="1" as="geometry">
            <mxPoint x="600" y="240" as="targetPoint" />
            <Array as="points">
              <mxPoint x="515" y="370" />
              <mxPoint x="515" y="285" />
            </Array>
          </mxGeometry>
        </mxCell>
        <mxCell id="oqAvVIWfd8Mlh-hOowKs-7" value="number % i == 0" style="rhombus;whiteSpace=wrap;html=1;" parent="1" vertex="1">
          <mxGeometry x="535" y="330" width="130" height="80" as="geometry" />
        </mxCell>
        <mxCell id="oqAvVIWfd8Mlh-hOowKs-28" style="edgeStyle=orthogonalEdgeStyle;rounded=0;orthogonalLoop=1;jettySize=auto;html=1;exitX=0.5;exitY=1;exitDx=0;exitDy=0;entryX=0.5;entryY=0;entryDx=0;entryDy=0;endArrow=none;endFill=0;" parent="1" source="oqAvVIWfd8Mlh-hOowKs-8" target="oqAvVIWfd8Mlh-hOowKs-5" edge="1">
          <mxGeometry relative="1" as="geometry" />
        </mxCell>
        <mxCell id="oqAvVIWfd8Mlh-hOowKs-8" value="result = false" style="rounded=0;whiteSpace=wrap;html=1;" parent="1" vertex="1">
          <mxGeometry x="540" y="170" width="120" height="50" as="geometry" />
        </mxCell>
        <mxCell id="oqAvVIWfd8Mlh-hOowKs-40" style="edgeStyle=orthogonalEdgeStyle;rounded=0;orthogonalLoop=1;jettySize=auto;html=1;exitX=0.5;exitY=1;exitDx=0;exitDy=0;entryX=0.5;entryY=0;entryDx=0;entryDy=0;endArrow=none;endFill=0;" parent="1" source="oqAvVIWfd8Mlh-hOowKs-9" target="oqAvVIWfd8Mlh-hOowKs-6" edge="1">
          <mxGeometry relative="1" as="geometry" />
        </mxCell>
        <mxCell id="oqAvVIWfd8Mlh-hOowKs-9" value="result = true" style="rounded=0;whiteSpace=wrap;html=1;" parent="1" vertex="1">
          <mxGeometry x="540" y="430" width="120" height="50" as="geometry" />
        </mxCell>
        <mxCell id="oqAvVIWfd8Mlh-hOowKs-18" style="edgeStyle=orthogonalEdgeStyle;rounded=0;orthogonalLoop=1;jettySize=auto;html=1;exitX=0.5;exitY=1;exitDx=0;exitDy=0;exitPerimeter=0;entryX=0.5;entryY=0;entryDx=0;entryDy=0;endArrow=none;endFill=0;" parent="1" source="oqAvVIWfd8Mlh-hOowKs-10" target="oqAvVIWfd8Mlh-hOowKs-12" edge="1">
          <mxGeometry relative="1" as="geometry" />
        </mxCell>
        <mxCell id="oqAvVIWfd8Mlh-hOowKs-10" value="numbers" style="shape=card;whiteSpace=wrap;html=1;" parent="1" vertex="1">
          <mxGeometry x="280" y="162.5" width="100" height="65" as="geometry" />
        </mxCell>
        <mxCell id="oqAvVIWfd8Mlh-hOowKs-35" style="edgeStyle=orthogonalEdgeStyle;rounded=0;orthogonalLoop=1;jettySize=auto;html=1;exitX=0;exitY=0.5;exitDx=0;exitDy=0;endArrow=none;endFill=0;" parent="1" source="oqAvVIWfd8Mlh-hOowKs-11" edge="1">
          <mxGeometry relative="1" as="geometry">
            <mxPoint x="230" y="450" as="targetPoint" />
          </mxGeometry>
        </mxCell>
        <mxCell id="oqAvVIWfd8Mlh-hOowKs-11" value="number" style="shape=document;whiteSpace=wrap;html=1;boundedLbl=1;" parent="1" vertex="1">
          <mxGeometry x="275" y="600" width="110" height="70" as="geometry" />
        </mxCell>
        <mxCell id="oqAvVIWfd8Mlh-hOowKs-19" style="edgeStyle=orthogonalEdgeStyle;rounded=0;orthogonalLoop=1;jettySize=auto;html=1;exitX=0.5;exitY=1;exitDx=0;exitDy=0;entryX=0.5;entryY=0;entryDx=0;entryDy=0;endArrow=none;endFill=0;" parent="1" source="oqAvVIWfd8Mlh-hOowKs-12" target="oqAvVIWfd8Mlh-hOowKs-13" edge="1">
          <mxGeometry relative="1" as="geometry" />
        </mxCell>
        <mxCell id="oqAvVIWfd8Mlh-hOowKs-12" value="primeCount = 0" style="rounded=0;whiteSpace=wrap;html=1;" parent="1" vertex="1">
          <mxGeometry x="270" y="250" width="120" height="60" as="geometry" />
        </mxCell>
        <mxCell id="oqAvVIWfd8Mlh-hOowKs-20" style="edgeStyle=orthogonalEdgeStyle;rounded=0;orthogonalLoop=1;jettySize=auto;html=1;exitX=0.5;exitY=1;exitDx=0;exitDy=0;entryX=0.5;entryY=0;entryDx=0;entryDy=0;endArrow=none;endFill=0;" parent="1" source="oqAvVIWfd8Mlh-hOowKs-13" target="oqAvVIWfd8Mlh-hOowKs-16" edge="1">
          <mxGeometry relative="1" as="geometry" />
        </mxCell>
        <mxCell id="oqAvVIWfd8Mlh-hOowKs-25" style="edgeStyle=orthogonalEdgeStyle;rounded=0;orthogonalLoop=1;jettySize=auto;html=1;exitX=1;exitY=0.5;exitDx=0;exitDy=0;entryX=0.5;entryY=0;entryDx=0;entryDy=0;endArrow=none;endFill=0;" parent="1" source="oqAvVIWfd8Mlh-hOowKs-13" target="oqAvVIWfd8Mlh-hOowKs-15" edge="1">
          <mxGeometry relative="1" as="geometry">
            <Array as="points">
              <mxPoint x="435" y="365" />
              <mxPoint x="435" y="670" />
              <mxPoint x="330" y="670" />
            </Array>
          </mxGeometry>
        </mxCell>
        <mxCell id="oqAvVIWfd8Mlh-hOowKs-13" value="foreach number in numbers" style="shape=hexagon;perimeter=hexagonPerimeter2;whiteSpace=wrap;html=1;fixedSize=1;" parent="1" vertex="1">
          <mxGeometry x="245" y="340" width="170" height="50" as="geometry" />
        </mxCell>
        <mxCell id="oqAvVIWfd8Mlh-hOowKs-22" style="edgeStyle=orthogonalEdgeStyle;rounded=0;orthogonalLoop=1;jettySize=auto;html=1;exitX=0.5;exitY=1;exitDx=0;exitDy=0;entryX=0.5;entryY=0;entryDx=0;entryDy=0;endArrow=none;endFill=0;" parent="1" source="oqAvVIWfd8Mlh-hOowKs-14" target="oqAvVIWfd8Mlh-hOowKs-11" edge="1">
          <mxGeometry relative="1" as="geometry" />
        </mxCell>
        <mxCell id="oqAvVIWfd8Mlh-hOowKs-14" value="++primeCount" style="rounded=0;whiteSpace=wrap;html=1;" parent="1" vertex="1">
          <mxGeometry x="270" y="510" width="120" height="50" as="geometry" />
        </mxCell>
        <mxCell id="oqAvVIWfd8Mlh-hOowKs-26" style="edgeStyle=orthogonalEdgeStyle;rounded=0;orthogonalLoop=1;jettySize=auto;html=1;entryX=0.5;entryY=0;entryDx=0;entryDy=0;exitX=0.501;exitY=0.831;exitDx=0;exitDy=0;exitPerimeter=0;endArrow=none;endFill=0;" parent="1" source="oqAvVIWfd8Mlh-hOowKs-15" target="oqAvVIWfd8Mlh-hOowKs-3" edge="1">
          <mxGeometry relative="1" as="geometry" />
        </mxCell>
        <mxCell id="oqAvVIWfd8Mlh-hOowKs-15" value="primeCount" style="shape=document;whiteSpace=wrap;html=1;boundedLbl=1;" parent="1" vertex="1">
          <mxGeometry x="275" y="690" width="110" height="70" as="geometry" />
        </mxCell>
        <mxCell id="oqAvVIWfd8Mlh-hOowKs-21" style="edgeStyle=orthogonalEdgeStyle;rounded=0;orthogonalLoop=1;jettySize=auto;html=1;exitX=0.5;exitY=1;exitDx=0;exitDy=0;entryX=0.5;entryY=0;entryDx=0;entryDy=0;endArrow=none;endFill=0;" parent="1" source="oqAvVIWfd8Mlh-hOowKs-16" target="oqAvVIWfd8Mlh-hOowKs-14" edge="1">
          <mxGeometry relative="1" as="geometry" />
        </mxCell>
        <mxCell id="oqAvVIWfd8Mlh-hOowKs-23" style="edgeStyle=orthogonalEdgeStyle;rounded=0;orthogonalLoop=1;jettySize=auto;html=1;exitX=0;exitY=0.5;exitDx=0;exitDy=0;entryX=0;entryY=0.5;entryDx=0;entryDy=0;" parent="1" source="oqAvVIWfd8Mlh-hOowKs-16" edge="1" target="oqAvVIWfd8Mlh-hOowKs-13">
          <mxGeometry relative="1" as="geometry">
            <mxPoint x="330" y="320" as="targetPoint" />
            <Array as="points">
              <mxPoint x="230" y="450" />
              <mxPoint x="230" y="365" />
            </Array>
          </mxGeometry>
        </mxCell>
        <mxCell id="oqAvVIWfd8Mlh-hOowKs-16" value="IsPrime(number)" style="rhombus;whiteSpace=wrap;html=1;" parent="1" vertex="1">
          <mxGeometry x="260" y="410" width="140" height="80" as="geometry" />
        </mxCell>
        <mxCell id="oqAvVIWfd8Mlh-hOowKs-17" style="edgeStyle=orthogonalEdgeStyle;rounded=0;orthogonalLoop=1;jettySize=auto;html=1;exitX=0.5;exitY=1;exitDx=0;exitDy=0;entryX=0.5;entryY=0;entryDx=0;entryDy=0;entryPerimeter=0;endArrow=none;endFill=0;" parent="1" source="oqAvVIWfd8Mlh-hOowKs-2" target="oqAvVIWfd8Mlh-hOowKs-10" edge="1">
          <mxGeometry relative="1" as="geometry" />
        </mxCell>
        <mxCell id="oqAvVIWfd8Mlh-hOowKs-36" value="Да" style="text;html=1;align=center;verticalAlign=middle;whiteSpace=wrap;rounded=0;" parent="1" vertex="1">
          <mxGeometry x="340" y="480" width="30" height="20" as="geometry" />
        </mxCell>
        <mxCell id="oqAvVIWfd8Mlh-hOowKs-37" value="Нет" style="text;html=1;align=center;verticalAlign=middle;whiteSpace=wrap;rounded=0;" parent="1" vertex="1">
          <mxGeometry x="230" y="430" width="30" height="20" as="geometry" />
        </mxCell>
        <mxCell id="oqAvVIWfd8Mlh-hOowKs-38" value="Нет" style="text;html=1;align=center;verticalAlign=middle;whiteSpace=wrap;rounded=0;" parent="1" vertex="1">
          <mxGeometry x="510" y="370" width="30" height="20" as="geometry" />
        </mxCell>
        <mxCell id="WbtfGvhUu2VBRz2jNiFG-1" value="Да" style="text;html=1;align=center;verticalAlign=middle;whiteSpace=wrap;rounded=0;" vertex="1" parent="1">
          <mxGeometry x="600" y="400" width="30" height="20" as="geometry" />
        </mxCell>
      </root>
    </mxGraphModel>
  </diagram>
</mxfile>
